<svg width="40" height="40" viewBox="0 0 40 40" fill="none" xmlns="http://www.w3.org/2000/svg">
<rect width="40" height="40" rx="20" fill="#777777"/>
<path d="M3.71937 13.1581C3.61145 12.8343 3.85243 12.5 4.19371 12.5H6.25C6.38807 12.5 6.5 12.6119 6.5 12.75V12.75C6.5 12.8881 6.61193 13 6.75 13H7.5H10H30H32.5H33.25C33.3881 13 33.5 12.8881 33.5 12.75V12.75C33.5 12.6119 33.6119 12.5 33.75 12.5H35.8063C36.1476 12.5 36.3886 12.8343 36.2806 13.1581L36.1736 13.4792C36.0655 13.8036 35.7991 14.0502 35.4674 14.1331L34.3962 14.401C34.1504 14.4624 33.8904 14.3904 33.7112 14.2112V14.2112C33.576 14.076 33.3925 14 33.2013 14H33H32H7H6.79875C6.60746 14 6.42401 14.076 6.28875 14.2112V14.2112C6.10961 14.3904 5.84961 14.4624 5.60383 14.401L4.53256 14.1331C4.20086 14.0502 3.93453 13.8036 3.82641 13.4792L3.71937 13.1581Z" fill="black"/>
<path d="M2.78897 19.6594C2.9088 18.581 3.41511 17.5851 4.18235 16.8179L5.82608 15.1741C5.94171 15.0585 6.04281 14.929 6.12687 14.7887C7.4539 12.5742 8.52861 10.7539 10.4855 8.56283C10.8124 8.19683 11.2692 7.97452 11.7583 7.93502C16.8767 7.52169 23.1222 7.52167 28.2407 7.93492C28.7306 7.97447 29.1886 8.19733 29.5145 8.56536C31.3691 10.6603 32.1275 12.175 33.8898 14.834C33.9626 14.9438 34.0471 15.0469 34.1402 15.1401L35.8461 16.846C36.596 17.5959 37.0986 18.5643 37.2263 19.6171C37.5597 22.3666 37.5012 24.367 37.0944 27.3363C37.0394 27.7378 36.7463 28.0657 36.3488 28.1449C29.7878 29.4516 10.2178 29.4517 3.65374 28.1453C3.25509 28.066 2.96164 27.7368 2.90802 27.3339C2.52779 24.477 2.47391 22.4946 2.78897 19.6594Z" fill="white"/>
<path d="M10.7366 8.8146C10.9042 8.61226 11.146 8.48643 11.4077 8.46409C16.7068 8.0119 23.2961 8.01201 28.5948 8.4643C28.8551 8.48652 29.0956 8.61145 29.2639 8.81121C30.6445 10.4492 31.3891 11.506 32.3479 13.225C32.4191 13.3527 32.3347 13.511 32.1888 13.5204C24.835 13.9929 15.1856 13.9932 7.82831 13.5215C7.67824 13.5118 7.59467 13.3455 7.67353 13.2175C8.94218 11.1577 9.68409 10.0855 10.7366 8.8146Z" fill="black"/>
<path d="M7 18.5C12.5 19.5 28 19.5 33 18.5L28.5908 20.1902C27.5378 20.5938 26.4242 20.8165 25.297 20.8487L20 21L14.703 20.8487C13.5758 20.8165 12.4622 20.5938 11.4092 20.1902L7 18.5Z" fill="black"/>
<path d="M12 21.5H20H28C29.2463 21.6356 29.9872 21.8337 31.0402 22.2927C31.2948 22.4037 31.4036 22.7056 31.279 22.9539C30.6561 24.1947 30.0622 25.0398 29.1015 25.9912C28.4092 26.6768 27.4841 27.0717 26.5165 27.1866C21.6163 27.7687 18.3623 27.7766 13.466 27.1873C12.5094 27.0721 11.596 26.6815 10.9036 26.0114C9.90442 25.0443 9.29501 24.202 8.70606 22.9544C8.58843 22.7053 8.70387 22.4092 8.95816 22.3031C10.0305 21.8556 10.7678 21.6572 12 21.5Z" fill="black"/>
<path d="M2.84985 27L2.93777 27.8786C2.97798 28.2805 3.15597 28.656 3.44154 28.9416C3.47995 28.98 3.52678 29.0089 3.57832 29.0261L4.98506 29.495C4.99497 29.4983 5.00513 29.5009 5.01543 29.5026L7.99995 30L20 30.3L32 30L34.9845 29.5026C34.9948 29.5009 35.0049 29.4983 35.0148 29.495L36.4827 29.0058C36.494 29.002 36.5044 28.9956 36.5128 28.9871C36.8278 28.6721 37.0242 28.2578 37.0685 27.8145L37.15 27L36.9048 27.2132C36.31 27.7304 35.6013 28.0997 34.8366 28.2908L34.1098 28.4725C34.0417 28.4896 33.9696 28.4696 33.9199 28.4199L33.5 28L33.9666 27.5334C33.9885 27.5114 34.0153 27.4949 34.0447 27.4851L34.5538 27.3154C35.1496 27.1168 35.6353 26.6545 35.7855 26.0447C35.9053 25.5588 35.9645 25.1143 36 24.5L33 26C31.5483 26.9573 30.6554 27.3643 29.0276 27.9894C29.0095 27.9964 28.9897 28.0008 28.9704 28.0022C22.0074 28.5308 18.0695 28.5037 11.0277 28.002C11.0095 28.0007 10.9909 27.9968 10.9738 27.9906C9.1076 27.3211 8.2344 26.8836 7.01298 26.0093C7.00439 26.0032 6.99521 25.9976 6.98576 25.9929L3.99995 24.5C4.04791 25.1155 4.10316 25.5583 4.21889 26.0442C4.3643 26.6547 4.85002 27.1167 5.44541 27.3152L5.95516 27.4851C5.98462 27.4949 6.01138 27.5114 6.03334 27.5334L6.49995 28L6.07564 28.4243C6.02835 28.4716 5.96056 28.4921 5.89499 28.479L4.66953 28.2339C3.9216 28.0843 3.26558 27.6395 2.84985 27Z" fill="black"/>
<path d="M33.5 18.5L29 20L31.0513 20.6837C31.6671 20.889 32.3329 20.889 32.9487 20.6837L34.7509 20.083C34.9147 20.0284 35.064 19.9359 35.1861 19.8138C35.7059 19.294 36 18.587 36 17.8518C36 17.7767 35.9269 17.7233 35.8553 17.7462L33.5 18.5Z" fill="white"/>
<path d="M6.5 18.5L11 20L8.94868 20.6837C8.33288 20.889 7.66712 20.889 7.05132 20.6837L5.24907 20.083C5.08527 20.0284 4.93597 19.9359 4.81389 19.8138C4.29407 19.294 4 18.587 4 17.8518C4 17.7767 4.07312 17.7233 4.14466 17.7462L6.5 18.5Z" fill="white"/>
<path d="M33.5 18.5L29 20L31.0513 20.6837C31.6671 20.889 32.3329 20.889 32.9487 20.6837L34.7509 20.083C34.9147 20.0284 35.064 19.9359 35.1861 19.8138C35.7059 19.294 36 18.587 36 17.8518C36 17.7767 35.9269 17.7233 35.8553 17.7462L33.5 18.5Z" stroke="#040404" stroke-width="0.7"/>
<path d="M6.5 18.5L11 20L8.94868 20.6837C8.33288 20.889 7.66712 20.889 7.05132 20.6837L5.24907 20.083C5.08527 20.0284 4.93597 19.9359 4.81389 19.8138C4.29407 19.294 4 18.587 4 17.8518C4 17.7767 4.07312 17.7233 4.14466 17.7462L6.5 18.5Z" stroke="#040404" stroke-width="0.7"/>
<path d="M32 27L34.8922 26.1736C35.2634 26.0676 35.5404 25.7573 35.6039 25.3765L35.9487 23.3078C35.9647 23.2118 35.8481 23.1519 35.7794 23.2206L32 27Z" fill="white"/>
<path d="M5.10776 26.1736L8 27L4.22065 23.2207C4.15186 23.1519 4.03531 23.2118 4.0513 23.3078L4.39609 25.3765C4.45955 25.7573 4.73655 26.0676 5.10776 26.1736Z" fill="white"/>
<path d="M32 27L34.8922 26.1736C35.2634 26.0676 35.5404 25.7573 35.6039 25.3765L35.9487 23.3078C35.9647 23.2118 35.8481 23.1519 35.7794 23.2206L32 27Z" stroke="#040404" stroke-width="0.7"/>
<path d="M5.10776 26.1736L8 27L4.22065 23.2207C4.15186 23.1519 4.03531 23.2118 4.0513 23.3078L4.39609 25.3765C4.45955 25.7573 4.73655 26.0676 5.10776 26.1736Z" stroke="#040404" stroke-width="0.7"/>
<path d="M20.95 21.8V22.15H19.55V21.8V21.75H19.5H18.0809L18.5309 20.85H19.5H19.55V20.8V20.45L20.95 20.45V20.8V20.85H21H22.4191L21.9691 21.75H21H20.95V21.8Z" fill="url(#paint0_diamond_6_77)" stroke="#414141" stroke-width="0.1"/>
<path d="M4 29C4 28.7239 4.22386 28.5 4.5 28.5H9.5C9.77614 28.5 10 28.7239 10 29V30C10 30.2761 9.77614 30.5 9.5 30.5H4.5C4.22386 30.5 4 30.2761 4 30V29Z" fill="black"/>
<path d="M30 29C30 28.7239 30.2239 28.5 30.5 28.5H35.5C35.7761 28.5 36 28.7239 36 29V30C36 30.2761 35.7761 30.5 35.5 30.5H30.5C30.2239 30.5 30 30.2761 30 30V29Z" fill="black"/>
<defs>
<radialGradient id="paint0_diamond_6_77" cx="0" cy="0" r="1" gradientUnits="userSpaceOnUse" gradientTransform="translate(20.25 21.3) rotate(90) scale(0.900012 2.25)">
<stop stop-color="#FFC800"/>
<stop offset="1" stop-color="#D0B44E"/>
</radialGradient>
</defs>
</svg>
