<svg width="2209" height="775" viewBox="0 0 2209 775" fill="none" xmlns="http://www.w3.org/2000/svg">
    <path fill-rule="evenodd" clip-rule="evenodd"
        d="M633.534 611.486C574.496 552.434 540.93 476.86 540.93 387.316C540.93 302.001 572.874 226.089 626.881 167.712C679.927 225.609 712.689 302.818 712.689 387.316C712.689 446.031 701.34 495.51 673.753 543.018C714.803 412.62 702.948 320.807 652.677 247.982C661.756 260.796 686.412 332.649 681.872 387.303C681.872 447.807 663.377 504.096 631.9 550.8L633.534 611.486ZM2208.96 387.329C2208.96 600.63 2034.92 774.321 1821.78 774.321C1732.58 774.321 1650.18 743.985 1582.87 692.43C1515.41 743.362 1432.51 774.321 1342.5 774.321C1253.61 774.321 1171.53 743.985 1103.91 693.883C1036.27 744.491 954.704 774.321 866.458 774.321C777.252 774.321 694.868 743.985 627.542 692.43C560.229 743.362 477.184 774.321 387.329 774.321C174.028 774.321 0 600.617 0 387.329C0 174.042 174.028 0.000309711 387.329 0.000309711C477.184 0.000309711 560.229 30.998 626.712 82.8901C693.389 30.998 776.591 0.000309711 866.458 0.000309711C956.313 0.000309711 1038.23 30.8165 1104.88 81.4245C1172.79 28.5508 1256.43 -0.10868 1342.5 0.000309711C1432.51 0.000309711 1515.41 30.998 1581.91 82.8901C1648.72 30.998 1731.93 0.000309711 1821.78 0.000309711C2043.02 0.000309711 2208.96 173.562 2208.96 387.329ZM1821.78 40.5567C1756.25 40.5567 1695.93 59.2073 1643.85 91.8133C1729 23.8387 1865.73 9.09213 2022.75 63.9153C1966.15 29.5325 1893.16 7.31525 1821.78 7.31525C1731.11 7.31525 1647.1 40.2325 1581.57 93.7587L1582.54 137.389C1520.1 77.5465 1435.43 40.5697 1342.49 40.5697C1279.62 40.4622 1218.02 58.2395 1164.88 91.8263C1249.73 23.8517 1386.62 9.10509 1543.45 63.9283C1486.84 29.5454 1414.02 7.32821 1342.49 7.32821C1252.13 7.32821 1170.4 37.8201 1104.87 91.502V137.402C1042.6 77.5595 959.386 40.5827 866.445 40.5827C803.53 40.4714 741.879 58.2478 688.682 91.8392C773.659 23.8647 910.4 9.11805 1067.4 63.9413C1010.79 29.5584 937.973 7.34122 866.445 7.34122C775.929 7.34122 691.924 40.2584 626.232 93.7847L627.218 137.415C564.937 77.5725 480.257 40.5957 387.329 40.5957C324.368 40.5047 262.673 58.2784 209.41 91.8522C294.556 23.8777 431.284 9.13102 588.283 63.9542C531.683 29.5714 458.689 7.35418 387.329 7.35418C178.088 7.35418 7.30197 178.309 7.30197 387.368C7.30197 460.038 32.593 539.504 75.5748 603.574C-11.1929 432.464 32.593 302.377 87.922 221.446C66.6646 268.967 38.9352 332.545 40.4008 387.368C45.7573 576.014 196.427 734.154 387.342 734.154C484.161 734.154 565.91 699.771 630.149 634.883C693.727 701.224 768.186 734.154 866.471 734.154C911.09 734.164 955.264 725.292 996.419 708.054C1037.57 690.817 1074.88 665.56 1106.18 633.755C1168 695.711 1248.6 734.154 1342.51 734.154C1439.51 734.154 1521.11 699.771 1585.32 634.883C1649.07 701.224 1723.36 734.154 1821.8 734.154C2012.71 734.154 2168.41 578.283 2168.41 387.368C2168.4 197.724 2011.4 40.5567 1821.78 40.5567ZM1059.14 610.033C1005.7 656.49 937.268 682.068 866.458 682.054C796.875 680.9 765.722 668.747 736.047 654.156C821.038 720.328 1009.84 694.7 1058 653.171C1005.45 690.964 939.426 712.715 866.445 712.715C776.902 712.715 701.483 679.953 642.133 621.395C703.117 559.27 733.933 481.256 733.933 387.342C733.933 296.022 698.098 212.51 639.863 150.385C684.466 105.613 772.7 61.8272 866.458 61.8272C951.773 61.8272 1032.06 100.594 1090.46 154.756H1047.46C992.485 220.603 962.784 295.387 962.784 387.342C962.784 460.012 988.088 539.478 1030.91 603.548C944.147 432.438 988.088 302.351 1043.25 221.42C1021.99 268.941 994.586 332.688 995.883 387.342C997.842 472.178 1036.27 550.839 1088.33 611.823L1059.14 610.033ZM1104.71 604.521C1049.89 546.131 1017.3 472.645 1017.3 387.329C1017.3 302.014 1050.54 224.001 1104.87 165.767C1160.18 223.832 1191.82 300.873 1191.82 387.329C1191.82 446.044 1180.46 495.523 1152.88 543.031C1193.92 412.633 1182.06 320.82 1131.79 247.995C1140.89 260.809 1165.54 332.662 1161.16 387.316C1161.16 449.61 1141.53 507.831 1108.28 555.521L1104.71 604.521ZM1121.59 621.693C1179.02 560.385 1213.22 478.481 1213.22 387.316C1213.22 295.996 1179.82 217.179 1121.59 154.73C1179.98 97.3254 1254.59 61.8012 1342.5 61.8012C1427.34 61.8012 1506.8 93.7458 1564.71 147.441L1527.41 147.609C1471.96 215.187 1441.69 299.915 1441.76 387.329C1441.76 459.999 1467.06 539.465 1510.04 603.535C1423.28 432.425 1467.07 302.338 1522.38 221.407C1501.12 268.928 1473.53 332.351 1474.84 387.329C1476.79 478.157 1507.29 552.94 1566 615.701L1532.43 612.147C1481.17 655.466 1414.68 682.067 1342.49 682.067C1272.9 680.913 1244.51 667.139 1212.24 654.169C1297.07 720.341 1485.87 694.713 1534.04 653.184C1481.48 690.978 1415.47 712.728 1342.49 712.728C1248.91 712.702 1181.77 675.556 1121.59 621.693ZM1177.38 618.788C1223.76 652.198 1281.5 671.665 1342.49 671.665C1403.64 671.665 1463.48 651.057 1510.35 618.139C1464.13 554.069 1434.44 472.165 1434.44 387.329C1434.44 302.183 1462.19 223.197 1509.37 158.309C1461.24 122.179 1402.65 102.711 1342.47 102.851C1281.49 102.851 1225.03 121.501 1178.65 154.743C1223.24 217.685 1253.42 303.48 1253.42 387.329C1253.45 472.165 1223.61 554.717 1177.38 618.788ZM1105.87 540.45C1135.29 494.807 1150.89 441.633 1150.79 387.329C1150.79 329.912 1134.88 276.23 1104.88 232.924C1076.01 278.5 1058.18 331.054 1058.18 387.329C1058.18 442.477 1078.28 496.483 1105.87 540.45ZM1031.24 617.646C983.886 551.799 955.327 472.645 955.327 387.329C955.305 303.98 982.34 222.875 1032.37 156.208C985.974 123.926 926.78 102.851 866.614 102.851C794.424 98.791 715.607 140.152 704.09 159.606C746.916 221.407 774.476 305.412 774.476 387.329C774.476 471.996 746.916 550.515 699.537 615.532C745.774 651.225 803.84 671.665 866.445 671.665C927.598 671.665 984.703 652.198 1031.24 617.646ZM610.668 615.701L577.09 612.147C525.833 655.466 459.506 682.067 387.329 682.067C317.746 680.913 297.124 664.376 256.749 654.169C341.766 720.341 530.541 694.713 578.879 653.184C526.17 690.978 460.154 712.728 387.329 712.728C208.268 712.728 61.8009 566.585 61.8009 387.355C61.8009 208.126 208.1 61.8402 387.329 61.8402C472.151 61.8402 551.63 93.7847 609.54 147.479L572.07 147.648C518.713 213.003 486.431 296.697 486.431 387.368C486.431 460.038 511.891 539.504 554.717 603.574C467.949 432.464 511.904 302.377 567.051 221.446C545.807 268.967 518.388 332.389 519.698 387.368C521.618 478.157 551.954 552.927 610.668 615.701ZM628.022 538.012C656.553 492.931 671.681 440.668 671.639 387.316C671.639 331.858 655.596 279.797 627.529 235.337C599.8 278.811 581.966 331.858 581.966 387.316C581.966 441.66 601.252 495.186 628.022 538.012ZM555.197 618.139C508.972 554.069 479.116 472.165 479.116 387.329C479.116 302.183 506.871 223.197 554.055 158.309C505.992 122.179 447.458 102.709 387.329 102.851C230.641 102.851 102.837 230.655 102.837 387.329C102.837 544.03 230.641 671.665 387.329 671.665C448.326 671.665 508.337 651.057 555.197 618.139ZM1588.87 611.486C1529.84 552.434 1496.26 476.86 1496.26 387.316C1496.26 302.001 1528.21 226.089 1582.05 167.712C1635.25 225.609 1667.85 302.818 1667.85 387.316C1667.85 446.031 1656.51 495.51 1628.92 543.018C1670.13 412.62 1658.12 320.807 1608 247.982C1616.93 260.796 1641.75 332.649 1637.2 387.303C1637.2 447.807 1618.72 504.096 1587.24 550.8L1588.87 611.486ZM1597.46 621.382C1658.29 559.257 1689.27 481.243 1689.27 387.329C1689.27 296.009 1653.41 212.497 1595.02 150.372C1639.79 105.6 1727.87 61.8142 1821.77 61.8142C2000.85 61.8142 2146.96 208.1 2146.96 387.329C2146.96 446.044 2135.78 495.523 2108.21 543.031C2149.25 412.633 2137.24 320.82 2087.13 247.995C2096.06 260.809 2120.87 332.662 2116.32 387.316C2116.32 549.672 1983.97 682.041 1821.77 682.041C1752.19 680.887 1721.05 668.734 1691.21 654.143C1776.21 720.315 1964.98 694.687 2013.17 653.158C1960.61 690.952 1894.6 712.702 1821.77 712.702C1732.25 712.702 1656.82 679.94 1597.46 621.382ZM1654.72 615.532C1701.1 651.225 1759.17 671.665 1821.78 671.665C1978.29 671.665 2106.12 544.017 2106.12 387.329C2106.12 230.655 1978.3 102.851 1821.78 102.851C1749.61 98.791 1670.78 140.152 1659.27 159.606C1702.09 221.407 1729.67 305.412 1729.67 387.329C1729.66 471.983 1702.09 550.502 1654.72 615.532ZM1583.36 538.012C1610.92 494.058 1626.98 442.477 1626.98 387.316C1626.98 331.858 1610.77 279.797 1582.87 235.337C1554.97 278.811 1537.28 331.858 1537.28 387.316C1537.28 441.66 1556.44 495.186 1583.36 538.012Z"
        fill="#3a3a3a" />
</svg>