<svg width="24" height="24" viewBox="0 0 800 800" fill="none" xmlns="http://www.w3.org/2000/svg">
    <rect x="123" y="359" width="563" height="318" fill="#c4c4c4" />
    <path
        d="M100 333.333V666.667C100 675.507 103.512 683.986 109.763 690.237C116.014 696.488 124.493 700 133.333 700H666.667C675.507 700 683.986 696.488 690.237 690.237C696.488 683.986 700 675.507 700 666.667V333.333M100 333.333H700M100 333.333V200C100 191.159 103.512 182.681 109.763 176.43C116.014 170.179 124.493 166.667 133.333 166.667H666.667C675.507 166.667 683.986 170.179 690.237 176.43C696.488 182.681 700 191.159 700 200V333.333M533.333 100V233.333M266.667 100V233.333"
        stroke="#111111" stroke-width="66.6667" stroke-linecap="round" stroke-linejoin="round" />
</svg>