<svg width="24" height="24" viewBox="0 0 24 24" fill="none" xmlns="http://www.w3.org/2000/svg">
    <path
        d="M22.9432 6.27784C22.8441 5.81496 22.6226 5.3914 22.3132 5.04148C22.248 4.96524 22.1799 4.89695 22.106 4.82867C21.5579 4.31835 20.7887 4 19.9484 4H4.05168C3.21135 4 2.44487 4.31835 1.89423 4.82867C1.82053 4.89695 1.75239 4.96524 1.68698 5.04148C1.37748 5.39135 1.15598 5.81496 1.05955 6.27784C1.01994 6.45649 1 6.64109 1 6.82774V17.1725C1 17.5694 1.09084 17.9509 1.25283 18.2954C1.40309 18.6242 1.62464 18.9218 1.89418 19.1713C1.9625 19.2345 2.03035 19.2925 2.10439 19.3502C2.6323 19.7553 3.31374 20 4.05168 20H19.9484C20.6866 20 21.371 19.7553 21.8958 19.3477C21.9697 19.2925 22.0379 19.2345 22.106 19.1713C22.3754 18.9218 22.5969 18.6242 22.7503 18.2954V18.2928C22.9122 17.9483 23 17.5694 23 17.1726V6.82774C23.0001 6.64109 22.9804 6.45649 22.9432 6.27784ZM2.99844 5.85168C3.27108 5.59935 3.63721 5.44657 4.05168 5.44657H19.9484C20.3629 5.44657 20.7322 5.59935 21.0016 5.85168C21.0498 5.89663 21.0952 5.9467 21.1353 5.99649L12.8034 12.7247C12.5736 12.9113 12.2897 13.0035 12 13.0035C11.7133 13.0035 11.4296 12.9113 11.1967 12.7247L2.86794 5.99361C2.90481 5.94384 2.95023 5.89663 2.99844 5.85168ZM2.56123 17.1725V7.49054L8.59079 12.3643L2.56428 17.2328C2.56123 17.2144 2.56123 17.1936 2.56123 17.1725ZM19.9484 18.5531H4.05168C3.7818 18.5531 3.52927 18.4874 3.31374 18.3719L9.6722 13.2376L10.2658 13.7161C10.7626 14.1161 11.3842 14.3186 12 14.3186C12.619 14.3186 13.2406 14.1161 13.7373 13.7161L14.3307 13.2376L20.6866 18.3719C20.4708 18.4874 20.2183 18.5531 19.9484 18.5531ZM21.4388 17.1725C21.4388 17.1936 21.4388 17.2144 21.4359 17.2328L15.4094 12.3671L21.4388 7.49314V17.1725Z"
        fill="#111111" />
</svg>